<mxfile host="app.diagrams.net" modified="2023-05-28T21:58:40.011Z" agent="Mozilla/5.0 (Windows NT 10.0; Win64; x64) AppleWebKit/537.36 (KHTML, like Gecko) Chrome/113.0.0.0 Safari/537.36" etag="y7Eg5r7gWR7ADYEGs7x0" version="21.3.2" type="device">
  <diagram name="Pagina-1" id="NyeI5wqk8mE22pPxT6q3">
    <mxGraphModel dx="1877" dy="549" grid="1" gridSize="10" guides="1" tooltips="1" connect="1" arrows="1" fold="1" page="1" pageScale="1" pageWidth="827" pageHeight="1169" math="0" shadow="0">
      <root>
        <mxCell id="0" />
        <mxCell id="1" parent="0" />
        <mxCell id="eB5SpMXS17hyEGrvky8w-1" value="&lt;b&gt;Utilities&lt;/b&gt;" style="swimlane;fontStyle=0;childLayout=stackLayout;horizontal=1;startSize=26;fillColor=#d5e8d4;horizontalStack=0;resizeParent=1;resizeParentMax=0;resizeLast=0;collapsible=1;marginBottom=0;whiteSpace=wrap;html=1;strokeColor=#82b366;" vertex="1" parent="1">
          <mxGeometry x="20" y="20" width="150" height="70" as="geometry" />
        </mxCell>
        <mxCell id="eB5SpMXS17hyEGrvky8w-2" value="+ static Sleep()&lt;br&gt;+ static&amp;nbsp;AddLeftSpaces();" style="text;strokeColor=none;fillColor=none;align=left;verticalAlign=top;spacingLeft=4;spacingRight=4;overflow=hidden;rotatable=0;points=[[0,0.5],[1,0.5]];portConstraint=eastwest;whiteSpace=wrap;html=1;" vertex="1" parent="eB5SpMXS17hyEGrvky8w-1">
          <mxGeometry y="26" width="150" height="44" as="geometry" />
        </mxCell>
        <mxCell id="eB5SpMXS17hyEGrvky8w-5" value="Menu" style="swimlane;fontStyle=1;align=center;verticalAlign=top;childLayout=stackLayout;horizontal=1;startSize=26;horizontalStack=0;resizeParent=1;resizeParentMax=0;resizeLast=0;collapsible=1;marginBottom=0;whiteSpace=wrap;html=1;fillColor=#f8cecc;strokeColor=#b85450;" vertex="1" parent="1">
          <mxGeometry x="200" y="20" width="210" height="220" as="geometry" />
        </mxCell>
        <mxCell id="eB5SpMXS17hyEGrvky8w-6" value="+&amp;nbsp;_inputReader:&amp;nbsp;InputReader*&lt;br&gt;+&amp;nbsp;_fileManager:&amp;nbsp;FileManager*&lt;br&gt;+&amp;nbsp;_logger:&amp;nbsp;Logger*" style="text;strokeColor=none;fillColor=none;align=left;verticalAlign=top;spacingLeft=4;spacingRight=4;overflow=hidden;rotatable=0;points=[[0,0.5],[1,0.5]];portConstraint=eastwest;whiteSpace=wrap;html=1;" vertex="1" parent="eB5SpMXS17hyEGrvky8w-5">
          <mxGeometry y="26" width="210" height="54" as="geometry" />
        </mxCell>
        <mxCell id="eB5SpMXS17hyEGrvky8w-7" value="" style="line;strokeWidth=1;fillColor=none;align=left;verticalAlign=middle;spacingTop=-1;spacingLeft=3;spacingRight=3;rotatable=0;labelPosition=right;points=[];portConstraint=eastwest;strokeColor=inherit;" vertex="1" parent="eB5SpMXS17hyEGrvky8w-5">
          <mxGeometry y="80" width="210" height="8" as="geometry" />
        </mxCell>
        <mxCell id="eB5SpMXS17hyEGrvky8w-8" value="+&amp;nbsp;DisplaySideBySideAlgorithms()&lt;br&gt;+&amp;nbsp;DuelSortingAlgorithmsMenu()&lt;br&gt;+&amp;nbsp;BenchmarkSortingAlgorithmMenu()&lt;br&gt;+&amp;nbsp;AlgorithmsDuelScreen()&lt;br&gt;+&amp;nbsp;SelectAlgorithmSaveMenu()&lt;br&gt;+&amp;nbsp;AlgorithmSelectionMenu()&lt;br&gt;+&amp;nbsp;ClearTerminal()&lt;br&gt;+&amp;nbsp;HelpMenu()" style="text;strokeColor=none;fillColor=none;align=left;verticalAlign=top;spacingLeft=4;spacingRight=4;overflow=hidden;rotatable=0;points=[[0,0.5],[1,0.5]];portConstraint=eastwest;whiteSpace=wrap;html=1;" vertex="1" parent="eB5SpMXS17hyEGrvky8w-5">
          <mxGeometry y="88" width="210" height="132" as="geometry" />
        </mxCell>
        <mxCell id="eB5SpMXS17hyEGrvky8w-9" value="&lt;b&gt;Logger&lt;/b&gt;" style="swimlane;fontStyle=0;childLayout=stackLayout;horizontal=1;startSize=26;fillColor=#e1d5e7;horizontalStack=0;resizeParent=1;resizeParentMax=0;resizeLast=0;collapsible=1;marginBottom=0;whiteSpace=wrap;html=1;strokeColor=#9673a6;" vertex="1" parent="1">
          <mxGeometry x="440" y="20" width="140" height="90" as="geometry" />
        </mxCell>
        <mxCell id="eB5SpMXS17hyEGrvky8w-10" value="+&amp;nbsp;LogInfo()&lt;br&gt;+&amp;nbsp;LogWarning()&lt;br&gt;+&amp;nbsp;LogImportant()&lt;br&gt;" style="text;strokeColor=none;fillColor=none;align=left;verticalAlign=top;spacingLeft=4;spacingRight=4;overflow=hidden;rotatable=0;points=[[0,0.5],[1,0.5]];portConstraint=eastwest;whiteSpace=wrap;html=1;" vertex="1" parent="eB5SpMXS17hyEGrvky8w-9">
          <mxGeometry y="26" width="140" height="64" as="geometry" />
        </mxCell>
        <mxCell id="eB5SpMXS17hyEGrvky8w-13" value="InputReader" style="swimlane;fontStyle=1;align=center;verticalAlign=top;childLayout=stackLayout;horizontal=1;startSize=26;horizontalStack=0;resizeParent=1;resizeParentMax=0;resizeLast=0;collapsible=1;marginBottom=0;whiteSpace=wrap;html=1;fillColor=#ffe6cc;strokeColor=#d79b00;" vertex="1" parent="1">
          <mxGeometry x="600" y="20" width="160" height="100" as="geometry" />
        </mxCell>
        <mxCell id="eB5SpMXS17hyEGrvky8w-16" value="+&amp;nbsp;ReadNumber()&lt;br&gt;+&amp;nbsp;ReadOneChar()&lt;br&gt;+&amp;nbsp;WaitForAnyKeyPress()&lt;br&gt;+&amp;nbsp;ReadString()" style="text;strokeColor=none;fillColor=none;align=left;verticalAlign=top;spacingLeft=4;spacingRight=4;overflow=hidden;rotatable=0;points=[[0,0.5],[1,0.5]];portConstraint=eastwest;whiteSpace=wrap;html=1;" vertex="1" parent="eB5SpMXS17hyEGrvky8w-13">
          <mxGeometry y="26" width="160" height="74" as="geometry" />
        </mxCell>
        <mxCell id="eB5SpMXS17hyEGrvky8w-17" value="FileManager" style="swimlane;fontStyle=1;align=center;verticalAlign=top;childLayout=stackLayout;horizontal=1;startSize=26;horizontalStack=0;resizeParent=1;resizeParentMax=0;resizeLast=0;collapsible=1;marginBottom=0;whiteSpace=wrap;html=1;fillColor=#dae8fc;strokeColor=#6c8ebf;" vertex="1" parent="1">
          <mxGeometry x="-10" y="120" width="180" height="90" as="geometry" />
        </mxCell>
        <mxCell id="eB5SpMXS17hyEGrvky8w-20" value="+&amp;nbsp;SaveSortingFramesToFile()&lt;br&gt;+&amp;nbsp;LoadSortingFramesFromFile()&lt;br&gt;+&amp;nbsp;GetAllFilesFromFolder()" style="text;strokeColor=none;fillColor=none;align=left;verticalAlign=top;spacingLeft=4;spacingRight=4;overflow=hidden;rotatable=0;points=[[0,0.5],[1,0.5]];portConstraint=eastwest;whiteSpace=wrap;html=1;" vertex="1" parent="eB5SpMXS17hyEGrvky8w-17">
          <mxGeometry y="26" width="180" height="64" as="geometry" />
        </mxCell>
        <mxCell id="eB5SpMXS17hyEGrvky8w-32" style="edgeStyle=orthogonalEdgeStyle;rounded=0;orthogonalLoop=1;jettySize=auto;html=1;exitX=0.5;exitY=0;exitDx=0;exitDy=0;entryX=0;entryY=0.5;entryDx=0;entryDy=0;" edge="1" parent="1" source="eB5SpMXS17hyEGrvky8w-21" target="eB5SpMXS17hyEGrvky8w-26">
          <mxGeometry relative="1" as="geometry">
            <mxPoint x="-40" y="320" as="targetPoint" />
          </mxGeometry>
        </mxCell>
        <mxCell id="eB5SpMXS17hyEGrvky8w-35" style="edgeStyle=orthogonalEdgeStyle;rounded=0;orthogonalLoop=1;jettySize=auto;html=1;exitX=0.75;exitY=0;exitDx=0;exitDy=0;" edge="1" parent="1" source="eB5SpMXS17hyEGrvky8w-21">
          <mxGeometry relative="1" as="geometry">
            <mxPoint x="130" y="410" as="targetPoint" />
            <Array as="points">
              <mxPoint y="410" />
            </Array>
          </mxGeometry>
        </mxCell>
        <mxCell id="eB5SpMXS17hyEGrvky8w-45" style="edgeStyle=orthogonalEdgeStyle;rounded=0;orthogonalLoop=1;jettySize=auto;html=1;" edge="1" parent="1" source="eB5SpMXS17hyEGrvky8w-21" target="eB5SpMXS17hyEGrvky8w-43">
          <mxGeometry relative="1" as="geometry" />
        </mxCell>
        <mxCell id="eB5SpMXS17hyEGrvky8w-59" style="edgeStyle=orthogonalEdgeStyle;rounded=0;orthogonalLoop=1;jettySize=auto;html=1;exitX=0.25;exitY=0;exitDx=0;exitDy=0;entryX=1;entryY=0.25;entryDx=0;entryDy=0;" edge="1" parent="1" source="eB5SpMXS17hyEGrvky8w-21" target="eB5SpMXS17hyEGrvky8w-46">
          <mxGeometry relative="1" as="geometry" />
        </mxCell>
        <mxCell id="eB5SpMXS17hyEGrvky8w-60" style="edgeStyle=orthogonalEdgeStyle;rounded=0;orthogonalLoop=1;jettySize=auto;html=1;exitX=0;exitY=0;exitDx=0;exitDy=0;entryX=1;entryY=0.25;entryDx=0;entryDy=0;" edge="1" parent="1" source="eB5SpMXS17hyEGrvky8w-21" target="eB5SpMXS17hyEGrvky8w-48">
          <mxGeometry relative="1" as="geometry" />
        </mxCell>
        <mxCell id="eB5SpMXS17hyEGrvky8w-21" value="SorterBase" style="swimlane;fontStyle=1;align=center;verticalAlign=top;childLayout=stackLayout;horizontal=1;startSize=26;horizontalStack=0;resizeParent=1;resizeParentMax=0;resizeLast=0;collapsible=1;marginBottom=0;whiteSpace=wrap;html=1;fillColor=#e1d5e7;strokeColor=#9673a6;" vertex="1" parent="1">
          <mxGeometry x="-120" y="460" width="160" height="160" as="geometry" />
        </mxCell>
        <mxCell id="eB5SpMXS17hyEGrvky8w-22" value="+&amp;nbsp;array&lt;br&gt;+&amp;nbsp;sortingFrames&lt;br&gt;" style="text;strokeColor=none;fillColor=none;align=left;verticalAlign=top;spacingLeft=4;spacingRight=4;overflow=hidden;rotatable=0;points=[[0,0.5],[1,0.5]];portConstraint=eastwest;whiteSpace=wrap;html=1;" vertex="1" parent="eB5SpMXS17hyEGrvky8w-21">
          <mxGeometry y="26" width="160" height="44" as="geometry" />
        </mxCell>
        <mxCell id="eB5SpMXS17hyEGrvky8w-23" value="" style="line;strokeWidth=1;fillColor=none;align=left;verticalAlign=middle;spacingTop=-1;spacingLeft=3;spacingRight=3;rotatable=0;labelPosition=right;points=[];portConstraint=eastwest;strokeColor=inherit;" vertex="1" parent="eB5SpMXS17hyEGrvky8w-21">
          <mxGeometry y="70" width="160" height="8" as="geometry" />
        </mxCell>
        <mxCell id="eB5SpMXS17hyEGrvky8w-24" value="+&amp;nbsp;Sort()&lt;br&gt;+&amp;nbsp;SaveFrame()&lt;br&gt;+&amp;nbsp;RandomizeArray()&lt;br&gt;+&amp;nbsp;GetArraySample()&lt;br&gt;+&amp;nbsp;CopyArrayFrom()" style="text;strokeColor=none;fillColor=none;align=left;verticalAlign=top;spacingLeft=4;spacingRight=4;overflow=hidden;rotatable=0;points=[[0,0.5],[1,0.5]];portConstraint=eastwest;whiteSpace=wrap;html=1;" vertex="1" parent="eB5SpMXS17hyEGrvky8w-21">
          <mxGeometry y="78" width="160" height="82" as="geometry" />
        </mxCell>
        <mxCell id="eB5SpMXS17hyEGrvky8w-26" value="&lt;b&gt;SelectionSort&lt;/b&gt;" style="swimlane;fontStyle=0;childLayout=stackLayout;horizontal=1;startSize=26;fillColor=#dae8fc;horizontalStack=0;resizeParent=1;resizeParentMax=0;resizeLast=0;collapsible=1;marginBottom=0;whiteSpace=wrap;html=1;strokeColor=#6c8ebf;" vertex="1" parent="1">
          <mxGeometry x="130" y="300" width="140" height="52" as="geometry" />
        </mxCell>
        <mxCell id="eB5SpMXS17hyEGrvky8w-28" value="+ Sort()" style="text;strokeColor=none;fillColor=none;align=left;verticalAlign=top;spacingLeft=4;spacingRight=4;overflow=hidden;rotatable=0;points=[[0,0.5],[1,0.5]];portConstraint=eastwest;whiteSpace=wrap;html=1;" vertex="1" parent="eB5SpMXS17hyEGrvky8w-26">
          <mxGeometry y="26" width="140" height="26" as="geometry" />
        </mxCell>
        <mxCell id="eB5SpMXS17hyEGrvky8w-33" value="&lt;b&gt;RadixSort&lt;/b&gt;" style="swimlane;fontStyle=0;childLayout=stackLayout;horizontal=1;startSize=26;fillColor=#dae8fc;horizontalStack=0;resizeParent=1;resizeParentMax=0;resizeLast=0;collapsible=1;marginBottom=0;whiteSpace=wrap;html=1;strokeColor=#6c8ebf;" vertex="1" parent="1">
          <mxGeometry x="130" y="370" width="140" height="80" as="geometry" />
        </mxCell>
        <mxCell id="eB5SpMXS17hyEGrvky8w-34" value="+ Sort()&lt;br&gt;+&amp;nbsp;FindMax()&lt;br&gt;+&amp;nbsp;CountingSort()" style="text;strokeColor=none;fillColor=none;align=left;verticalAlign=top;spacingLeft=4;spacingRight=4;overflow=hidden;rotatable=0;points=[[0,0.5],[1,0.5]];portConstraint=eastwest;whiteSpace=wrap;html=1;" vertex="1" parent="eB5SpMXS17hyEGrvky8w-33">
          <mxGeometry y="26" width="140" height="54" as="geometry" />
        </mxCell>
        <mxCell id="eB5SpMXS17hyEGrvky8w-37" value="&lt;b&gt;QuickSort&lt;/b&gt;" style="swimlane;fontStyle=0;childLayout=stackLayout;horizontal=1;startSize=26;fillColor=#dae8fc;horizontalStack=0;resizeParent=1;resizeParentMax=0;resizeLast=0;collapsible=1;marginBottom=0;whiteSpace=wrap;html=1;strokeColor=#6c8ebf;" vertex="1" parent="1">
          <mxGeometry x="130" y="460" width="140" height="100" as="geometry" />
        </mxCell>
        <mxCell id="eB5SpMXS17hyEGrvky8w-38" value="+ Sort()&lt;br&gt;+&amp;nbsp;Swap()&lt;br&gt;+&amp;nbsp;QuickSortStart()&lt;br&gt;+&amp;nbsp;Partition()" style="text;strokeColor=none;fillColor=none;align=left;verticalAlign=top;spacingLeft=4;spacingRight=4;overflow=hidden;rotatable=0;points=[[0,0.5],[1,0.5]];portConstraint=eastwest;whiteSpace=wrap;html=1;" vertex="1" parent="eB5SpMXS17hyEGrvky8w-37">
          <mxGeometry y="26" width="140" height="74" as="geometry" />
        </mxCell>
        <mxCell id="eB5SpMXS17hyEGrvky8w-39" style="edgeStyle=orthogonalEdgeStyle;rounded=0;orthogonalLoop=1;jettySize=auto;html=1;entryX=0;entryY=0.297;entryDx=0;entryDy=0;entryPerimeter=0;" edge="1" parent="1" source="eB5SpMXS17hyEGrvky8w-22" target="eB5SpMXS17hyEGrvky8w-38">
          <mxGeometry relative="1" as="geometry" />
        </mxCell>
        <mxCell id="eB5SpMXS17hyEGrvky8w-40" value="&lt;b&gt;OddEvenSort&lt;/b&gt;" style="swimlane;fontStyle=0;childLayout=stackLayout;horizontal=1;startSize=26;fillColor=#dae8fc;horizontalStack=0;resizeParent=1;resizeParentMax=0;resizeLast=0;collapsible=1;marginBottom=0;whiteSpace=wrap;html=1;strokeColor=#6c8ebf;" vertex="1" parent="1">
          <mxGeometry x="130" y="580" width="140" height="52" as="geometry" />
        </mxCell>
        <mxCell id="eB5SpMXS17hyEGrvky8w-41" value="+ Sort()" style="text;strokeColor=none;fillColor=none;align=left;verticalAlign=top;spacingLeft=4;spacingRight=4;overflow=hidden;rotatable=0;points=[[0,0.5],[1,0.5]];portConstraint=eastwest;whiteSpace=wrap;html=1;" vertex="1" parent="eB5SpMXS17hyEGrvky8w-40">
          <mxGeometry y="26" width="140" height="26" as="geometry" />
        </mxCell>
        <mxCell id="eB5SpMXS17hyEGrvky8w-42" value="&lt;b&gt;MergeSort&lt;/b&gt;" style="swimlane;fontStyle=0;childLayout=stackLayout;horizontal=1;startSize=26;fillColor=#dae8fc;horizontalStack=0;resizeParent=1;resizeParentMax=0;resizeLast=0;collapsible=1;marginBottom=0;whiteSpace=wrap;html=1;strokeColor=#6c8ebf;" vertex="1" parent="1">
          <mxGeometry x="130" y="650" width="140" height="80" as="geometry" />
        </mxCell>
        <mxCell id="eB5SpMXS17hyEGrvky8w-43" value="+ Sort()&lt;br&gt;+&amp;nbsp;Merge()&amp;nbsp;&lt;br&gt;+&amp;nbsp;MergeSortStart()" style="text;strokeColor=none;fillColor=none;align=left;verticalAlign=top;spacingLeft=4;spacingRight=4;overflow=hidden;rotatable=0;points=[[0,0.5],[1,0.5]];portConstraint=eastwest;whiteSpace=wrap;html=1;" vertex="1" parent="eB5SpMXS17hyEGrvky8w-42">
          <mxGeometry y="26" width="140" height="54" as="geometry" />
        </mxCell>
        <mxCell id="eB5SpMXS17hyEGrvky8w-44" style="edgeStyle=orthogonalEdgeStyle;rounded=0;orthogonalLoop=1;jettySize=auto;html=1;entryX=0;entryY=0.5;entryDx=0;entryDy=0;" edge="1" parent="1" source="eB5SpMXS17hyEGrvky8w-24" target="eB5SpMXS17hyEGrvky8w-41">
          <mxGeometry relative="1" as="geometry">
            <Array as="points">
              <mxPoint x="85" y="610" />
              <mxPoint x="85" y="619" />
            </Array>
          </mxGeometry>
        </mxCell>
        <mxCell id="eB5SpMXS17hyEGrvky8w-46" value="&lt;b&gt;GnomeSort&lt;/b&gt;" style="swimlane;fontStyle=0;childLayout=stackLayout;horizontal=1;startSize=26;fillColor=#dae8fc;horizontalStack=0;resizeParent=1;resizeParentMax=0;resizeLast=0;collapsible=1;marginBottom=0;whiteSpace=wrap;html=1;strokeColor=#6c8ebf;" vertex="1" parent="1">
          <mxGeometry x="-340" y="318" width="140" height="52" as="geometry" />
        </mxCell>
        <mxCell id="eB5SpMXS17hyEGrvky8w-47" value="+ Sort()" style="text;strokeColor=none;fillColor=none;align=left;verticalAlign=top;spacingLeft=4;spacingRight=4;overflow=hidden;rotatable=0;points=[[0,0.5],[1,0.5]];portConstraint=eastwest;whiteSpace=wrap;html=1;" vertex="1" parent="eB5SpMXS17hyEGrvky8w-46">
          <mxGeometry y="26" width="140" height="26" as="geometry" />
        </mxCell>
        <mxCell id="eB5SpMXS17hyEGrvky8w-48" value="&lt;b&gt;DummyAlgorithm&lt;/b&gt;" style="swimlane;fontStyle=0;childLayout=stackLayout;horizontal=1;startSize=26;fillColor=#dae8fc;horizontalStack=0;resizeParent=1;resizeParentMax=0;resizeLast=0;collapsible=1;marginBottom=0;whiteSpace=wrap;html=1;strokeColor=#6c8ebf;" vertex="1" parent="1">
          <mxGeometry x="-340" y="384" width="140" height="52" as="geometry" />
        </mxCell>
        <mxCell id="eB5SpMXS17hyEGrvky8w-49" value="+ Sort()" style="text;strokeColor=none;fillColor=none;align=left;verticalAlign=top;spacingLeft=4;spacingRight=4;overflow=hidden;rotatable=0;points=[[0,0.5],[1,0.5]];portConstraint=eastwest;whiteSpace=wrap;html=1;" vertex="1" parent="eB5SpMXS17hyEGrvky8w-48">
          <mxGeometry y="26" width="140" height="26" as="geometry" />
        </mxCell>
        <mxCell id="eB5SpMXS17hyEGrvky8w-50" value="&lt;b&gt;CycleSort&lt;/b&gt;" style="swimlane;fontStyle=0;childLayout=stackLayout;horizontal=1;startSize=26;fillColor=#dae8fc;horizontalStack=0;resizeParent=1;resizeParentMax=0;resizeLast=0;collapsible=1;marginBottom=0;whiteSpace=wrap;html=1;strokeColor=#6c8ebf;" vertex="1" parent="1">
          <mxGeometry x="-340" y="450" width="140" height="52" as="geometry" />
        </mxCell>
        <mxCell id="eB5SpMXS17hyEGrvky8w-51" value="+ Sort()" style="text;strokeColor=none;fillColor=none;align=left;verticalAlign=top;spacingLeft=4;spacingRight=4;overflow=hidden;rotatable=0;points=[[0,0.5],[1,0.5]];portConstraint=eastwest;whiteSpace=wrap;html=1;" vertex="1" parent="eB5SpMXS17hyEGrvky8w-50">
          <mxGeometry y="26" width="140" height="26" as="geometry" />
        </mxCell>
        <mxCell id="eB5SpMXS17hyEGrvky8w-52" value="&lt;b&gt;CombSort&lt;/b&gt;" style="swimlane;fontStyle=0;childLayout=stackLayout;horizontal=1;startSize=26;fillColor=#dae8fc;horizontalStack=0;resizeParent=1;resizeParentMax=0;resizeLast=0;collapsible=1;marginBottom=0;whiteSpace=wrap;html=1;strokeColor=#6c8ebf;" vertex="1" parent="1">
          <mxGeometry x="-340" y="514" width="140" height="52" as="geometry" />
        </mxCell>
        <mxCell id="eB5SpMXS17hyEGrvky8w-53" value="+ Sort()" style="text;strokeColor=none;fillColor=none;align=left;verticalAlign=top;spacingLeft=4;spacingRight=4;overflow=hidden;rotatable=0;points=[[0,0.5],[1,0.5]];portConstraint=eastwest;whiteSpace=wrap;html=1;" vertex="1" parent="eB5SpMXS17hyEGrvky8w-52">
          <mxGeometry y="26" width="140" height="26" as="geometry" />
        </mxCell>
        <mxCell id="eB5SpMXS17hyEGrvky8w-54" value="&lt;b&gt;CocktailSort&lt;/b&gt;" style="swimlane;fontStyle=0;childLayout=stackLayout;horizontal=1;startSize=26;fillColor=#dae8fc;horizontalStack=0;resizeParent=1;resizeParentMax=0;resizeLast=0;collapsible=1;marginBottom=0;whiteSpace=wrap;html=1;strokeColor=#6c8ebf;" vertex="1" parent="1">
          <mxGeometry x="-340" y="585" width="140" height="52" as="geometry" />
        </mxCell>
        <mxCell id="eB5SpMXS17hyEGrvky8w-55" value="+ Sort()" style="text;strokeColor=none;fillColor=none;align=left;verticalAlign=top;spacingLeft=4;spacingRight=4;overflow=hidden;rotatable=0;points=[[0,0.5],[1,0.5]];portConstraint=eastwest;whiteSpace=wrap;html=1;" vertex="1" parent="eB5SpMXS17hyEGrvky8w-54">
          <mxGeometry y="26" width="140" height="26" as="geometry" />
        </mxCell>
        <mxCell id="eB5SpMXS17hyEGrvky8w-57" value="&lt;b&gt;BubbleSort&lt;/b&gt;" style="swimlane;fontStyle=0;childLayout=stackLayout;horizontal=1;startSize=26;fillColor=#dae8fc;horizontalStack=0;resizeParent=1;resizeParentMax=0;resizeLast=0;collapsible=1;marginBottom=0;whiteSpace=wrap;html=1;strokeColor=#6c8ebf;" vertex="1" parent="1">
          <mxGeometry x="-340" y="660" width="140" height="52" as="geometry" />
        </mxCell>
        <mxCell id="eB5SpMXS17hyEGrvky8w-58" value="+ Sort()" style="text;strokeColor=none;fillColor=none;align=left;verticalAlign=top;spacingLeft=4;spacingRight=4;overflow=hidden;rotatable=0;points=[[0,0.5],[1,0.5]];portConstraint=eastwest;whiteSpace=wrap;html=1;" vertex="1" parent="eB5SpMXS17hyEGrvky8w-57">
          <mxGeometry y="26" width="140" height="26" as="geometry" />
        </mxCell>
        <mxCell id="eB5SpMXS17hyEGrvky8w-61" style="edgeStyle=orthogonalEdgeStyle;rounded=0;orthogonalLoop=1;jettySize=auto;html=1;entryX=1;entryY=0.5;entryDx=0;entryDy=0;" edge="1" parent="1" source="eB5SpMXS17hyEGrvky8w-22" target="eB5SpMXS17hyEGrvky8w-51">
          <mxGeometry relative="1" as="geometry" />
        </mxCell>
        <mxCell id="eB5SpMXS17hyEGrvky8w-62" style="edgeStyle=orthogonalEdgeStyle;rounded=0;orthogonalLoop=1;jettySize=auto;html=1;entryX=1;entryY=0.5;entryDx=0;entryDy=0;" edge="1" parent="1" source="eB5SpMXS17hyEGrvky8w-24" target="eB5SpMXS17hyEGrvky8w-53">
          <mxGeometry relative="1" as="geometry">
            <Array as="points">
              <mxPoint x="-160" y="550" />
              <mxPoint x="-160" y="553" />
            </Array>
          </mxGeometry>
        </mxCell>
        <mxCell id="eB5SpMXS17hyEGrvky8w-65" style="edgeStyle=orthogonalEdgeStyle;rounded=0;orthogonalLoop=1;jettySize=auto;html=1;entryX=1.004;entryY=-0.077;entryDx=0;entryDy=0;entryPerimeter=0;" edge="1" parent="1" source="eB5SpMXS17hyEGrvky8w-24" target="eB5SpMXS17hyEGrvky8w-55">
          <mxGeometry relative="1" as="geometry">
            <Array as="points">
              <mxPoint x="-160" y="600" />
              <mxPoint x="-160" y="609" />
            </Array>
          </mxGeometry>
        </mxCell>
        <mxCell id="eB5SpMXS17hyEGrvky8w-67" style="edgeStyle=orthogonalEdgeStyle;rounded=0;orthogonalLoop=1;jettySize=auto;html=1;entryX=1;entryY=0.5;entryDx=0;entryDy=0;" edge="1" parent="1" source="eB5SpMXS17hyEGrvky8w-24" target="eB5SpMXS17hyEGrvky8w-58">
          <mxGeometry relative="1" as="geometry">
            <Array as="points">
              <mxPoint x="-160" y="620" />
              <mxPoint x="-160" y="699" />
            </Array>
          </mxGeometry>
        </mxCell>
      </root>
    </mxGraphModel>
  </diagram>
</mxfile>
